<svg id="Ebene_1" data-name="Ebene 1" xmlns="http://www.w3.org/2000/svg" viewBox="0 0 19.53 19.51"><defs><style>.cls-1{fill:#003b60;}</style></defs><title>Gruppe 18</title><g id="Gruppe_18" data-name="Gruppe 18"><path id="Pfad_61" data-name="Pfad 61" class="cls-1" d="M3.68,3.42A.41.41,0,0,0,4,3.3a.42.42,0,1,0-.6-.59h0a.43.43,0,0,0,0,.6.39.39,0,0,0,.27.11" transform="translate(0 0)"/><path id="Pfad_62" data-name="Pfad 62" class="cls-1" d="M5.27,2.21A.42.42,0,1,0,5,1.5H5a.43.43,0,0,0,0,.6.36.36,0,0,0,.26.11" transform="translate(0 0)"/><path id="Pfad_63" data-name="Pfad 63" class="cls-1" d="M1.2,6.52a.39.39,0,0,0,.32-.13.42.42,0,1,0-.58-.6l0,0a.42.42,0,0,0,0,.59h0a.36.36,0,0,0,.26.11" transform="translate(0 0)"/><path id="Pfad_64" data-name="Pfad 64" class="cls-1" d="M2.65,4.73a.41.41,0,0,0,0-.59h0A.42.42,0,0,0,2,4.73l0,0a.36.36,0,0,0,.26.11.41.41,0,0,0,.33-.13Z" transform="translate(0 0)"/><path id="Pfad_65" data-name="Pfad 65" class="cls-1" d="M.37,8.26a.29.29,0,0,0,.26-.11h0a.31.31,0,0,0,0-.45h0a.33.33,0,0,0-.45,0,.32.32,0,0,0,0,.46.28.28,0,0,0,.2.08" transform="translate(0 0)"/><path id="Pfad_66" data-name="Pfad 66" class="cls-1" d="M7.16,1.07A.31.31,0,0,0,7.42,1,.33.33,0,0,0,6.93.53.34.34,0,0,0,7,1H7a.28.28,0,0,0,.2.08" transform="translate(0 0)"/><path id="Pfad_67" data-name="Pfad 67" class="cls-1" d="M1.4,9.82a.46.46,0,0,0,.05.64h0a.46.46,0,0,0,.3.11.44.44,0,0,0,.34-.16.45.45,0,0,0-.66-.62l0,0" transform="translate(0 0)"/><path id="Pfad_68" data-name="Pfad 68" class="cls-1" d="M11.1.91a.44.44,0,0,0,.32-.13.45.45,0,0,0-.63-.65h0a.44.44,0,0,0,0,.63h0a.43.43,0,0,0,.32.14" transform="translate(0 0)"/><path id="Pfad_69" data-name="Pfad 69" class="cls-1" d="M2.73,8a.46.46,0,0,0,0,.64.48.48,0,0,0,.3.11.45.45,0,0,0,.46-.45.47.47,0,0,0-.46-.46A.45.45,0,0,0,2.73,8" transform="translate(0 0)"/><path id="Pfad_70" data-name="Pfad 70" class="cls-1" d="M4.25,6.89a.45.45,0,0,0,.64,0h0a.47.47,0,0,0,0-.64.46.46,0,0,0-.65,0,.47.47,0,0,0,0,.64" transform="translate(0 0)"/><path id="Pfad_71" data-name="Pfad 71" class="cls-1" d="M7.31,3.63a.44.44,0,0,0,.32.13A.45.45,0,0,0,8,3a.46.46,0,1,0-.64.65" transform="translate(0 0)"/><path id="Pfad_72" data-name="Pfad 72" class="cls-1" d="M9.42,2.25a.46.46,0,0,0,.46-.46.53.53,0,0,0-.13-.31.45.45,0,0,0-.65.63h0a.43.43,0,0,0,.32.14" transform="translate(0 0)"/><path id="Pfad_73" data-name="Pfad 73" class="cls-1" d="M.45,12.36a.46.46,0,0,0,.36-.17.46.46,0,0,0,0-.64.45.45,0,0,0-.64,0,.18.18,0,0,0,0,.07.44.44,0,0,0,.05.63.46.46,0,0,0,.3.11" transform="translate(0 0)"/><path id="Pfad_74" data-name="Pfad 74" class="cls-1" d="M5.77,5.24a.42.42,0,0,0,.31.13.44.44,0,0,0,.33-.14.46.46,0,0,0,0-.64.45.45,0,0,0-.64,0h0a.46.46,0,0,0,0,.64" transform="translate(0 0)"/><path id="Pfad_75" data-name="Pfad 75" class="cls-1" d="M9,6.76a.5.5,0,0,0,.35-.14.53.53,0,0,0-.72-.77.53.53,0,0,0,0,.75h0A.53.53,0,0,0,9,6.77" transform="translate(0 0)"/><path id="Pfad_76" data-name="Pfad 76" class="cls-1" d="M7.09,7.37a.54.54,0,0,0,.38.91.51.51,0,0,0,.37-.16.53.53,0,1,0-.75-.74" transform="translate(0 0)"/><path id="Pfad_77" data-name="Pfad 77" class="cls-1" d="M1.19,14.21a.54.54,0,0,0,.09.75A.53.53,0,0,0,2,14.9a.52.52,0,0,0-.07-.74.51.51,0,0,0-.73.05h0" transform="translate(0 0)"/><path id="Pfad_78" data-name="Pfad 78" class="cls-1" d="M3,13.25a.49.49,0,0,0,.38-.17.52.52,0,0,0,0-.74h0a.52.52,0,0,0-.74.05.53.53,0,0,0,0,.73.51.51,0,0,0,.35.13" transform="translate(0 0)"/><path id="Pfad_79" data-name="Pfad 79" class="cls-1" d="M5.59,8.92a.53.53,0,0,0,0,.75.51.51,0,0,0,.74,0,.53.53,0,0,0,0-.75h0a.51.51,0,0,0-.73,0" transform="translate(0 0)"/><path id="Pfad_80" data-name="Pfad 80" class="cls-1" d="M12.34,3.89a.51.51,0,0,0,.51-.52A.49.49,0,0,0,12.71,3a.52.52,0,0,0-.76.7.51.51,0,0,0,.39.16" transform="translate(0 0)"/><path id="Pfad_81" data-name="Pfad 81" class="cls-1" d="M4.89,11.22a.53.53,0,0,0-.78-.72.52.52,0,0,0,0,.73h0a.52.52,0,0,0,.36.14.55.55,0,0,0,.38-.16" transform="translate(0 0)"/><path id="Pfad_82" data-name="Pfad 82" class="cls-1" d="M14.14,2.19a.56.56,0,0,0,.34-.12.53.53,0,0,0,0-.75.51.51,0,0,0-.74-.05.51.51,0,0,0-.06.72h0a.52.52,0,0,0,.4.18" transform="translate(0 0)"/><path id="Pfad_83" data-name="Pfad 83" class="cls-1" d="M10.55,5.28a.52.52,0,0,0,.52-.51.51.51,0,0,0-.15-.37.53.53,0,0,0-.74,0,.52.52,0,0,0,0,.73h0a.52.52,0,0,0,.39.17" transform="translate(0 0)"/><path id="Pfad_84" data-name="Pfad 84" class="cls-1" d="M12.09,8.49a.56.56,0,0,0,.35-.13h0a.53.53,0,0,0,0-.74.52.52,0,1,0-.78.69h0a.51.51,0,0,0,.4.17" transform="translate(0 0)"/><path id="Pfad_85" data-name="Pfad 85" class="cls-1" d="M4.65,15.72a.52.52,0,0,0,.52-.51A.53.53,0,0,0,5,14.82a.52.52,0,0,0-.7.76.54.54,0,0,0,.36.14" transform="translate(0 0)"/><path id="Pfad_86" data-name="Pfad 86" class="cls-1" d="M10.18,9a.53.53,0,0,0,0,.75.55.55,0,0,0,.38.16.52.52,0,0,0,.52-.52A.5.5,0,0,0,10.93,9a.53.53,0,0,0-.75,0" transform="translate(0 0)"/><path id="Pfad_87" data-name="Pfad 87" class="cls-1" d="M2.84,16.38a.52.52,0,0,0,0,.73h0a.52.52,0,0,0,.74,0h0a.51.51,0,0,0,0-.74h0a.52.52,0,0,0-.74,0h0" transform="translate(0 0)"/><path id="Pfad_88" data-name="Pfad 88" class="cls-1" d="M13.67,7.12a.5.5,0,0,0,.52-.49.55.55,0,0,0-.14-.37.53.53,0,0,0-.74-.06h0a.52.52,0,0,0-.06.73h0a.52.52,0,0,0,.41.18" transform="translate(0 0)"/><path id="Pfad_89" data-name="Pfad 89" class="cls-1" d="M5.7,13.33a.52.52,0,0,0,0,.74.53.53,0,0,0,.37.15.47.47,0,0,0,.37-.16.52.52,0,0,0,0-.73.53.53,0,0,0-.74,0" transform="translate(0 0)"/><path id="Pfad_90" data-name="Pfad 90" class="cls-1" d="M8.66,10.39a.54.54,0,0,0,0,.76A.51.51,0,0,0,9,11.3a.5.5,0,0,0,.35-.14.53.53,0,1,0-.73-.77" transform="translate(0 0)"/><path id="Pfad_91" data-name="Pfad 91" class="cls-1" d="M15.26,5.79a.52.52,0,1,0-.42-.2.53.53,0,0,0,.42.2" transform="translate(0 0)"/><path id="Pfad_92" data-name="Pfad 92" class="cls-1" d="M7.91,11.86a.53.53,0,0,0-.74,0h0a.51.51,0,0,0,0,.72l0,0a.55.55,0,0,0,.37.16.51.51,0,0,0,.37-.15.53.53,0,0,0,0-.74" transform="translate(0 0)"/><path id="Pfad_93" data-name="Pfad 93" class="cls-1" d="M16.87,4.49a.52.52,0,0,0,.41-.83h0a.53.53,0,0,0-.73-.11h0a.53.53,0,0,0-.08.74.56.56,0,0,0,.42.2" transform="translate(0 0)"/><path id="Pfad_94" data-name="Pfad 94" class="cls-1" d="M16.52,8.94a.48.48,0,0,0,.28-.1.45.45,0,0,0,.08-.64.46.46,0,0,0-.63-.08h0a.45.45,0,0,0-.09.63h0a.47.47,0,0,0,.36.18" transform="translate(0 0)"/><path id="Pfad_95" data-name="Pfad 95" class="cls-1" d="M15.21,10.09a.45.45,0,0,0,0-.64.44.44,0,0,0-.6-.07.46.46,0,0,0-.08.64.48.48,0,0,0,.36.16.42.42,0,0,0,.28-.1" transform="translate(0 0)"/><path id="Pfad_96" data-name="Pfad 96" class="cls-1" d="M5.47,17.84a.45.45,0,0,0,0,.64.44.44,0,0,0,.64,0,.45.45,0,0,0-.64-.64h0" transform="translate(0 0)"/><path id="Pfad_97" data-name="Pfad 97" class="cls-1" d="M7,16.06H7a.46.46,0,0,0,.31.79.48.48,0,0,0,.32-.13A.46.46,0,0,0,7,16.06" transform="translate(0 0)"/><path id="Pfad_98" data-name="Pfad 98" class="cls-1" d="M8.78,15.46A.46.46,0,0,0,9.24,15a.52.52,0,0,0-.12-.31.46.46,0,0,0-.65,0,.44.44,0,0,0,.31.76" transform="translate(0 0)"/><path id="Pfad_99" data-name="Pfad 99" class="cls-1" d="M18.49,7.5a.45.45,0,0,0,.37-.72.46.46,0,0,0-.64-.09.45.45,0,0,0-.09.63.47.47,0,0,0,.36.18" transform="translate(0 0)"/><path id="Pfad_100" data-name="Pfad 100" class="cls-1" d="M12.15,12a.45.45,0,0,0-.64,0,.47.47,0,0,0,0,.64.45.45,0,0,0,.34.15.46.46,0,0,0,.3-.11.45.45,0,0,0,.05-.63h0" transform="translate(0 0)"/><path id="Pfad_101" data-name="Pfad 101" class="cls-1" d="M9.94,14a.45.45,0,0,0,.34.15.42.42,0,0,0,.3-.12.44.44,0,0,0,0-.63.45.45,0,1,0-.67.6" transform="translate(0 0)"/><path id="Pfad_102" data-name="Pfad 102" class="cls-1" d="M13.36,11.46a.45.45,0,0,0,.29-.1h0a.46.46,0,0,0,0-.64.45.45,0,0,0-.6-.06.47.47,0,0,0-.06.65.48.48,0,0,0,.35.16" transform="translate(0 0)"/><path id="Pfad_103" data-name="Pfad 103" class="cls-1" d="M9.93,18.17a.46.46,0,0,0,.3-.11.45.45,0,0,0-.6-.68.47.47,0,0,0,0,.64.45.45,0,0,0,.34.15" transform="translate(0 0)"/><path id="Pfad_104" data-name="Pfad 104" class="cls-1" d="M18.7,10.85a.47.47,0,0,0,.38.19.42.42,0,0,0,.26-.08.46.46,0,0,0,.11-.63.45.45,0,0,0-.64-.11.46.46,0,0,0-.11.63" transform="translate(0 0)"/><path id="Pfad_105" data-name="Pfad 105" class="cls-1" d="M8.78,19.36a.45.45,0,0,0-.61-.67.46.46,0,0,0,0,.64h0a.47.47,0,0,0,.64,0" transform="translate(0 0)"/><path id="Pfad_106" data-name="Pfad 106" class="cls-1" d="M17.19,11.86a.42.42,0,0,0,.37.18.4.4,0,0,0,.26-.08.45.45,0,0,0,.1-.63h0a.45.45,0,0,0-.64-.1.44.44,0,0,0-.09.62h0" transform="translate(0 0)"/><path id="Pfad_107" data-name="Pfad 107" class="cls-1" d="M14.44,14.42a.53.53,0,0,0,.28-.1.46.46,0,1,0-.56-.72.46.46,0,0,0-.07.64h0a.43.43,0,0,0,.35.17" transform="translate(0 0)"/><path id="Pfad_108" data-name="Pfad 108" class="cls-1" d="M13.26,14.9a.45.45,0,1,0-.35.74.44.44,0,0,0,.45-.46.48.48,0,0,0-.1-.28" transform="translate(0 0)"/><path id="Pfad_109" data-name="Pfad 109" class="cls-1" d="M15.63,13a.45.45,0,0,0,.36.18.44.44,0,0,0,.27-.09.45.45,0,0,0,.1-.64.46.46,0,0,0-.64-.09.44.44,0,0,0-.09.63h0" transform="translate(0 0)"/><path id="Pfad_110" data-name="Pfad 110" class="cls-1" d="M11.42,16.89a.43.43,0,0,0,.28-.11.45.45,0,0,0,.06-.64.46.46,0,0,0-.64-.06.47.47,0,0,0-.06.65.48.48,0,0,0,.36.16" transform="translate(0 0)"/><path id="Pfad_111" data-name="Pfad 111" class="cls-1" d="M18,14.28a.29.29,0,0,0,.05.41h0a.26.26,0,0,0,.18.07.32.32,0,0,0,.24-.11.3.3,0,0,0,0-.41h0a.3.3,0,0,0-.42,0" transform="translate(0 0)"/><path id="Pfad_112" data-name="Pfad 112" class="cls-1" d="M11.65,19.46a.29.29,0,0,0,.41-.06A.3.3,0,0,0,12,19h0a.3.3,0,0,0-.42.05.29.29,0,0,0,.05.41h0" transform="translate(0 0)"/><path id="Pfad_113" data-name="Pfad 113" class="cls-1" d="M15.43,17.49a.4.4,0,0,0,.23-.08.39.39,0,1,0-.47-.61h0a.39.39,0,0,0-.07.54.4.4,0,0,0,.31.15" transform="translate(0 0)"/><path id="Pfad_114" data-name="Pfad 114" class="cls-1" d="M17.19,15.61a.39.39,0,0,0-.54-.08.37.37,0,0,0-.08.53.33.33,0,0,0,.31.16.36.36,0,0,0,.22-.07.38.38,0,0,0,.09-.53h0" transform="translate(0 0)"/><path id="Pfad_115" data-name="Pfad 115" class="cls-1" d="M13.42,18a.38.38,0,0,0-.07.54.36.36,0,0,0,.3.15.41.41,0,0,0,.24-.08.39.39,0,0,0-.47-.61h0" transform="translate(0 0)"/></g></svg>